<?xml version="1.0" encoding="UTF-8" standalone="no"?>
<!DOCTYPE svg PUBLIC "-//W3C//DTD SVG 1.1//EN" "http://www.w3.org/Graphics/SVG/1.1/DTD/svg11.dtd">
<svg version="1.1" xmlns="http://www.w3.org/2000/svg" xmlns:xlink="http://www.w3.org/1999/xlink" preserveAspectRatio="xMidYMid meet" viewBox="0 0 640 640" width="640" height="640"><defs><path d="M250.22 43.65C255.46 43.65 259.71 47.9 259.71 53.14C259.71 58.55 259.71 65.32 259.71 70.73C259.71 75.97 255.46 80.22 250.22 80.22C212.78 80.22 109.95 80.22 72.51 80.22C67.27 80.22 63.02 75.97 63.02 70.73C63.02 65.32 63.02 58.55 63.02 53.14C63.02 47.9 67.27 43.65 72.51 43.65C109.95 43.65 212.78 43.65 250.22 43.65Z" id="apqZzWSVk"></path><path d="M272.56 61.94C272.56 72.03 263.6 80.22 252.56 80.22C241.52 80.22 232.56 72.03 232.56 61.94C232.56 51.84 241.52 43.65 252.56 43.65C263.6 43.65 272.56 51.84 272.56 61.94Z" id="b1toG1cVVl"></path><path d="M89.07 61.94C89.07 72.03 80.11 80.22 69.07 80.22C58.03 80.22 49.07 72.03 49.07 61.94C49.07 51.84 58.03 43.65 69.07 43.65C80.11 43.65 89.07 51.84 89.07 61.94Z" id="b1cO3H3dEI"></path></defs><g><g><g><use xlink:href="#apqZzWSVk" opacity="1" fill="#218fd8" fill-opacity="1"></use></g><g><use xlink:href="#b1toG1cVVl" opacity="1" fill="#218fd8" fill-opacity="1"></use></g><g><use xlink:href="#b1cO3H3dEI" opacity="1" fill="#218fd8" fill-opacity="1"></use></g></g></g></svg>