<svg width="26" height="26" viewBox="0 0 26 26" fill="none" xmlns="http://www.w3.org/2000/svg">
<path d="M6.63654 6.63576C3.12198 10.1503 3.12219 15.8489 6.63662 19.3633C10.1511 22.8778 15.8499 22.8782 19.3645 19.3637C22.879 15.8491 22.8791 10.1501 19.3645 6.63551C15.8499 3.1209 10.1511 3.1212 6.63654 6.63576ZM12.9868 19.0883L12.0658 15.1535C12.3592 15.1938 12.6661 15.2173 12.9868 15.2173C13.304 15.2174 13.6122 15.1955 13.9077 15.1549L12.9868 19.0883ZM14.9826 9.15712C14.9827 9.47786 14.7267 9.76539 14.322 9.96458L14.3217 11.5788C15.3866 11.8322 16.125 12.3775 16.1253 13.0112C16.1253 13.2676 16.0045 13.5096 15.7902 13.7239C15.3958 14.1184 14.6835 14.4178 13.8239 14.5375C13.8049 14.5403 13.7855 14.5425 13.7663 14.5448C13.7045 14.5528 13.642 14.5599 13.5787 14.5659C13.5537 14.5683 13.5287 14.5706 13.5033 14.5728C13.4424 14.5779 13.3808 14.5818 13.3187 14.5851C13.2943 14.5864 13.27 14.5881 13.2453 14.5892C13.1599 14.5927 13.0739 14.5949 12.9867 14.5949C12.8873 14.5949 12.7892 14.5922 12.6923 14.5874C12.6322 14.5846 12.5736 14.5796 12.5145 14.5751C12.4822 14.5726 12.4496 14.5707 12.4174 14.5676C12.3396 14.5605 12.2635 14.5513 12.1879 14.5412C12.1784 14.5399 12.1689 14.5388 12.1597 14.5375C10.8282 14.3542 9.84813 13.7412 9.84818 13.011C9.84818 12.7545 9.96896 12.5125 10.1832 12.2982C10.4987 11.9828 11.0173 11.7285 11.6516 11.5776L11.6518 9.96437C11.247 9.76509 10.9911 9.47757 10.9913 9.1567C10.9911 8.55547 11.8847 8.06791 12.9867 8.06804C14.089 8.06791 14.9826 8.55547 14.9826 9.15712Z" fill="#218FD8"/>
</svg>
