<?xml version="1.0" encoding="utf-8"?>
<!-- Generator: Adobe Illustrator 16.0.0, SVG Export Plug-In . SVG Version: 6.00 Build 0)  -->
<!DOCTYPE svg PUBLIC "-//W3C//DTD SVG 1.1//EN" "http://www.w3.org/Graphics/SVG/1.1/DTD/svg11.dtd">
<svg version="1.1" id="Layer_2" xmlns="http://www.w3.org/2000/svg" xmlns:xlink="http://www.w3.org/1999/xlink" x="0px" y="0px"
	 width="579.621px" height="579.621px" viewBox="0 0 579.621 579.621" enable-background="new 0 0 579.621 579.621"
	 xml:space="preserve">
<circle fill="#218FD8" cx="289.811" cy="289.811" r="289.811"/>
<image overflow="visible" width="953" height="43" xlink:href="../Downloads/Screenshot_2019-12-06 Design Guidelines UI Kit Tiket com.png"  transform="matrix(1 0 0 1 -966.4873 466.4912)">
</image>
<path fill="none" d="M71.919,71.919h435.783v435.783H71.919V71.919z"/>
<path fill="#FFFFFF" d="M398.756,108.234H180.865c-19.966,0-36.315,16.34-36.315,36.315v290.522
	c0,19.966,16.349,36.314,36.315,36.314h217.891c19.967,0,36.315-16.349,36.315-36.314V144.55
	C435.071,124.575,418.723,108.234,398.756,108.234z M180.865,144.55h90.788v145.261l-45.394-27.236l-45.394,27.236V144.55z"/>
</svg>
