<svg width="59" height="23" viewBox="0 0 59 23" fill="none" xmlns="http://www.w3.org/2000/svg">
<rect x="0.5" y="0.5" width="58" height="22" rx="3.5" stroke="#F58C38"/>
<path d="M18.106 17V7.41H24.154V8.768H19.66V11.484H23.314V12.828H19.66V15.628H24.154V17H18.106ZM31.5286 7.088V17H30.0166V16.636C29.3352 16.9813 28.7099 17.154 28.1406 17.154C27.2259 17.154 26.5539 16.8787 26.1246 16.328C25.7046 15.7773 25.4946 14.8533 25.4946 13.556C25.4946 12.2587 25.7279 11.316 26.1946 10.728C26.6706 10.14 27.4079 9.846 28.4066 9.846C28.7426 9.846 29.2746 9.90667 30.0026 10.028V7.088H31.5286ZM29.7646 15.544L30.0026 15.446V11.302C29.4426 11.2087 28.9246 11.162 28.4486 11.162C27.5059 11.162 27.0346 11.946 27.0346 13.514C27.0346 14.3727 27.1419 14.97 27.3566 15.306C27.5806 15.6327 27.9306 15.796 28.4066 15.796C28.8826 15.796 29.3352 15.712 29.7646 15.544ZM33.6271 17V10H35.1531V17H33.6271ZM33.6271 8.81V7.2H35.1531V8.81H33.6271ZM41.0201 11.302H39.0881V14.382C39.0881 14.9513 39.1301 15.3293 39.2141 15.516C39.2981 15.7027 39.5127 15.796 39.8581 15.796L41.0061 15.754L41.0761 16.972C40.4507 17.0933 39.9747 17.154 39.6481 17.154C38.8547 17.154 38.3087 16.972 38.0101 16.608C37.7207 16.244 37.5761 15.558 37.5761 14.55V11.302H36.6801V10H37.5761V7.97H39.0881V10H41.0201V11.302Z" fill="#F58C38"/>
</svg>
