<?xml version="1.0" encoding="utf-8"?>
<!-- Generator: Adobe Illustrator 16.0.0, SVG Export Plug-In . SVG Version: 6.00 Build 0)  -->
<!DOCTYPE svg PUBLIC "-//W3C//DTD SVG 1.1//EN" "http://www.w3.org/Graphics/SVG/1.1/DTD/svg11.dtd">
<svg version="1.1" xmlns="http://www.w3.org/2000/svg" xmlns:xlink="http://www.w3.org/1999/xlink" x="0px" y="0px"
	 width="579.621px" height="579.621px" viewBox="0 0 579.621 579.621" enable-background="new 0 0 579.621 579.621"
	 xml:space="preserve">
<g id="Layer_2">
	<circle fill="#218FD8" cx="289.811" cy="289.811" r="289.811"/>
	
		<image overflow="visible" width="953" height="43" xlink:href="../Downloads/Screenshot_2019-12-06 Design Guidelines UI Kit Tiket com.png"  transform="matrix(1 0 0 1 -966.4873 466.4912)">
	</image>
</g>
<g id="Capa_1">
	<g>
		<g>
			<polygon fill="#FFFFFF" points="515.164,239.567 289.911,152.889 60.837,239.567 289.911,313.855 			"/>
			<path fill="#FFFFFF" d="M423.729,340.529v-63.822l-135.729,45.242l-134.293-45.242v63.34
				c71.436,1.428,135.01,43.334,135.01,43.334C362.77,336.711,423.729,340.529,423.729,340.529z"/>
			<path fill="#FFFFFF" d="M436.349,394.816v91.674h26.193v-91.674c0-4.172-2.252-7.781-5.589-9.775
				c3.365-2.371,5.589-6.27,5.589-10.699c0-5.189-3.046-9.637-7.422-11.752l0.033-0.152v-96.749l-11.431,3.631v92.641l0.329,0.467
				c-4.544,2.063-7.713,6.602-7.713,11.914c0,4.43,2.219,8.328,5.584,10.699C438.602,387.035,436.349,390.654,436.349,394.816z"/>
		</g>
	</g>
</g>
</svg>
