<svg width="491" height="491" viewBox="0 0 491 491" fill="none" xmlns="http://www.w3.org/2000/svg">
<g clip-path="url(#clip0)">
<path d="M245.333 490.666C380.827 490.666 490.666 380.827 490.666 245.333C490.666 109.839 380.827 0 245.333 0C109.839 0 0 109.839 0 245.333C0 380.827 109.839 490.666 245.333 490.666Z" fill="#218FD8"/>
<path d="M74.667 223.999L138.667 244.052V234.665L245.27 213.332L352 234.666V243.946L416 223.999L245.227 149.332L74.667 223.999Z" fill="#787680"/>
<path d="M245.269 213.332L138.666 234.665V244.052V341.332L245.269 319.999L352 341.332V243.945V234.665L245.269 213.332Z" fill="#57565C"/>
</g>
<defs>
<clipPath id="clip0">
<rect width="490.667" height="490.667" fill="white"/>
</clipPath>
</defs>
</svg>
