<svg width="512" height="512" viewBox="0 0 512 512" fill="none" xmlns="http://www.w3.org/2000/svg">
<g clip-path="url(#clip0)">
<path d="M408.928 463.448H13.8145C4.7221 463.448 -1.88977 454.815 0.484853 446.031L90.2261 199.998C91.8504 193.977 97.3146 189.793 103.556 189.793H498.67C507.762 189.793 511.999 198.479 511.999 207.21L422.258 453.243C420.634 459.264 415.17 463.448 408.928 463.448Z" fill="#4AC7EF"/>
<path d="M443.745 110.345H220.69L176.552 48.5518H15.2894C6.85021 48.5518 0 55.3931 0 63.8411V441.026C0.609103 441.044 1.21821 441.079 1.80966 441.115L90.2179 199.998C91.8422 193.969 97.3065 189.793 103.548 189.793H459.034V125.634C459.034 117.186 452.184 110.345 443.745 110.345Z" fill="#0BB2E8"/>
</g>
<defs>
<clipPath id="clip0">
<rect width="512" height="512" fill="white"/>
</clipPath>
</defs>
</svg>
