<svg width="26" height="26" viewBox="0 0 26 26" fill="none" xmlns="http://www.w3.org/2000/svg">
<path d="M6.36545 6.63479C2.85089 10.1493 2.8511 15.8479 6.36553 19.3624C9.87996 22.8768 15.5788 22.8773 19.0934 19.3627C22.6079 15.8481 22.608 10.1491 19.0934 6.63453C15.5788 3.11993 9.88001 3.12022 6.36545 6.63479ZM12.7157 19.0873L11.7947 15.1525C12.0881 15.1928 12.395 15.2163 12.7157 15.2163C13.0329 15.2164 13.3411 15.1945 13.6366 15.1539L12.7157 19.0873ZM14.7115 9.15614C14.7116 9.47689 14.4556 9.76441 14.0509 9.9636L14.0506 11.5778C15.1155 11.8313 15.8539 12.3765 15.8542 13.0102C15.8542 13.2666 15.7334 13.5087 15.5192 13.7229C15.1247 14.1174 14.4124 14.4168 13.5528 14.5365C13.5338 14.5393 13.5144 14.5415 13.4952 14.5438C13.4334 14.5518 13.3709 14.5589 13.3076 14.5649C13.2826 14.5673 13.2576 14.5697 13.2322 14.5718C13.1713 14.5769 13.1097 14.5809 13.0476 14.5841C13.0232 14.5855 12.9989 14.5871 12.9742 14.5882C12.8888 14.5917 12.8028 14.5939 12.7156 14.5939C12.6162 14.5939 12.5181 14.5912 12.4212 14.5865C12.3611 14.5836 12.3025 14.5787 12.2434 14.5741C12.2111 14.5716 12.1785 14.5697 12.1463 14.5667C12.0685 14.5595 11.9924 14.5503 11.9168 14.5403C11.9073 14.539 11.8978 14.5378 11.8886 14.5365C10.5571 14.3532 9.57704 13.7402 9.57708 13.01C9.57708 12.7536 9.69787 12.5115 9.91212 12.2973C10.2276 11.9818 10.7462 11.7275 11.3805 11.5767L11.3807 9.96339C10.9759 9.76411 10.72 9.47659 10.7202 9.15572C10.72 8.5545 11.6136 8.06693 12.7156 8.06706C13.8179 8.06693 14.7115 8.55449 14.7115 9.15614Z" fill="#C6C6C6"/>
</svg>
