<?xml version="1.0" encoding="utf-8"?>
<!-- Generator: Adobe Illustrator 16.0.0, SVG Export Plug-In . SVG Version: 6.00 Build 0)  -->
<!DOCTYPE svg PUBLIC "-//W3C//DTD SVG 1.1//EN" "http://www.w3.org/Graphics/SVG/1.1/DTD/svg11.dtd">
<svg version="1.1" id="Layer_2" xmlns="http://www.w3.org/2000/svg" xmlns:xlink="http://www.w3.org/1999/xlink" x="0px" y="0px"
	 width="579.621px" height="579.621px" viewBox="0 0 579.621 579.621" enable-background="new 0 0 579.621 579.621"
	 xml:space="preserve">
<circle fill="#218FD8" cx="289.811" cy="289.811" r="289.811"/>
<image overflow="visible" width="953" height="43" xlink:href="../Downloads/Screenshot_2019-12-06 Design Guidelines UI Kit Tiket com.png"  transform="matrix(1 0 0 1 -966.4873 466.4912)">
</image>
<path fill="none" d="M71.919,71.919h435.783v435.783H71.919V71.919z"/>
<g id="surface1">
	<path fill="#FCFCFC" d="M168.088,183.7c1.033,0.259,1.977,0.795,2.729,1.547l84.088,84.089l15.215-15.215l-84.089-84.089
		c-0.754-0.753-1.288-1.701-1.548-2.735l-5.292-21.098l-35.083-20.057l-17.18,17.179l20.063,35.108L168.088,183.7z"/>
	<path fill="#FCFCFC" d="M242.862,375.51l133.434-133.436c1.462-1.463,3.582-2.049,5.588-1.55
		c17.567,4.503,36.229,0.601,50.527-10.555c14.3-11.155,22.618-28.312,22.522-46.447c0-1.104-0.032-2.217-0.104-3.34l-31.035,31.032
		c-1.572,1.574-3.905,2.125-6.018,1.42l-35.3-11.768c-1.757-0.582-3.135-1.96-3.723-3.717l-11.765-35.298
		c-0.706-2.111-0.155-4.444,1.422-6.02l31.033-31.034c-18.688-1.162-36.807,6.689-48.743,21.115
		c-11.936,14.429-16.249,33.697-11.606,51.836c0.504,2.007-0.082,4.127-1.546,5.59L204.117,336.766
		c-1.464,1.451-3.583,2.04-5.589,1.549c-4.646-1.193-9.423-1.812-14.222-1.83c-25.338-0.166-47.977,15.805-56.319,39.736
		c-8.338,23.928-0.53,50.513,19.426,66.13c19.955,15.617,47.637,16.812,68.86,2.966c21.226-13.845,31.289-39.659,25.035-64.219
		C240.811,379.094,241.398,376.969,242.862,375.51z M198.627,418.85h-28.636l-14.123-23.531l14.123-23.535h28.636l14.12,23.535
		L198.627,418.85z M221.332,349.975l129.429-129.43l8.318,8.319l-129.43,129.43L221.332,349.975z"/>
	<path fill="#FCFCFC" d="M406.693,451.867c13.105,4.927,27.879,1.732,37.779-8.167c9.9-9.901,13.096-24.679,8.166-37.779
		L406.693,451.867z"/>
	<path fill="#FCFCFC" d="M444.474,393.178l-66.078-66.104c-7.288,6.127-18.052,5.66-24.787-1.067
		c-6.738-6.727-7.213-17.487-1.097-24.783l-9.357-9.369l-50.514,50.515l9.414,9.413c7.289-6.126,18.053-5.662,24.786,1.064
		c6.737,6.729,7.215,17.489,1.099,24.786l66.021,66.057c0.722,0.72,1.481,1.388,2.249,2.036l50.302-50.302
		C445.863,394.653,445.193,393.896,444.474,393.178z M409.593,417.125l-58.832-58.831l8.318-8.319l58.832,58.835L409.593,417.125z"
		/>
</g>
</svg>
