<svg width="32" height="32" viewBox="0 0 32 32" fill="none" xmlns="http://www.w3.org/2000/svg">
<g clip-path="url(#clip0)">
<path d="M7.16788 0H28.1223V28.6745H7.16788V0Z" fill="#5EB3D1"/>
<path d="M20.9537 3.85986H19.8508V28.6743H25.9164V8.82279L20.9537 3.85986Z" fill="#4FA1B7"/>
<path d="M24.8138 31.983H3.85931V3.30859H19.2994L24.8138 8.82298V31.983Z" fill="#87CED9"/>
<path d="M24.8137 8.823H19.2993V3.30859L24.8137 8.823Z" fill="#B9E6ED"/>
<path d="M7.71936 10.4771H20.9538V11.58H7.71936V10.4771Z" fill="#5EB3D1"/>
<path d="M7.71936 7.16846H12.1308V8.27139H7.71936V7.16846Z" fill="#5EB3D1"/>
<path d="M7.71936 13.7856H16.5423V14.8884H7.71936V13.7856Z" fill="#5EB3D1"/>
<path d="M17.6452 13.7856H20.9538V14.8884H17.6452V13.7856Z" fill="#5EB3D1"/>
<path d="M7.71936 17.0942H20.9538V18.1969H7.71936V17.0942Z" fill="#5EB3D1"/>
<path d="M7.71936 23.7114H20.9538V24.8144H7.71936V23.7114Z" fill="#5EB3D1"/>
<path d="M12.6823 20.4028H20.9538V21.5055H12.6823V20.4028Z" fill="#5EB3D1"/>
<path d="M7.71936 20.4028H11.5794V21.5055H7.71936V20.4028Z" fill="#5EB3D1"/>
<path d="M7.71936 27.02H9.925V28.1229H7.71936V27.02Z" fill="#5EB3D1"/>
<path d="M11.0279 27.02H20.9537V28.1229H11.0279V27.02Z" fill="#5EB3D1"/>
<rect x="2.66667" y="13.3335" width="26.6667" height="8" fill="#FF6868"/>
</g>
<defs>
<clipPath id="clip0">
<rect width="32" height="32" fill="white"/>
</clipPath>
</defs>
</svg>
